<svg
   xmlns:svg="http://www.w3.org/2000/svg"
   xmlns="http://www.w3.org/2000/svg"
   id="kitchen"
   viewBox="0 0 118 118"
   style="enable-background:new 0 0 118 118;"
   xml:space="preserve">
   <style
     type="text/css"
     id="style3">
	.st0{fill:#1FBA0A;}
</style><g
     id="_x30_606-turner-knife"><g
       id="g6"><path
         class="st0"
         d="M117.8,5.3c-0.8-0.6-1.2-1.6-3-1.2c-0.3,0-0.3,0.3-0.7,0.2c-5.9,3.2-10.2,7.9-13.8,13.3c-1,1.2-1.9,2.5-3,3.7    c-0.5,0.6-1.2,1.1-1.7,1.7c-0.5,0.6-0.9,1.4-1.5,2c-0.2,0.3-0.5,0.4-0.7,0.7c-0.8,1-1.7,1.8-2.5,2.7c-1.1,1.2-2.3,2.3-3.5,3.5    c-4.6,4.6-8.2,10.1-12.8,14.6c-4.6,4.6-9.4,8.8-14.1,13.3c-2.4-2.5-5.1-4.6-7.4-7.2c0.5-3.3-0.9-6.8-1.2-10.1c0-3-0.1-6,0.2-8.6    c-0.9-2.2-1.6-4.7-2.2-7.2c-3.8-4.6-8-8.8-12.1-13.1c-0.8-1-2-1.4-2.7-2.5c-0.9-0.9-2.1-1.3-2.7-2.5c-1.4-0.3-2.1-1.4-3.7-1.5    c-1.8,0.6-2.8,2-4.2,3c-1,1.4-2.5,2.3-3.5,3.7c-2.8,2-4.9,4.6-7.2,7.2c-2.4,2.4-5.3,4.3-7.4,6.9c-0.7,0.5-1.3,1-1.7,1.7    c-0.7,0.6-1.5,1-1.7,2c-0.9,0.4-1.2,1.3-1.7,2c-0.4,0.8-1.4,1.1-1.2,2.5c0.3,1.8,1.4,2.7,2.5,3.7c0.7,1.3,1.9,2.2,2.7,3.5    c5,5.3,10.3,10.3,15.6,15.3c1.1,1.1,1.8,2.5,3.5,3c2.2,0.2,3.9-0.2,5.9-0.2c0.7-0.5,1.6-0.7,2.5-1c0.6-0.7,1.7-0.7,2.5-1.2    c4.5-0.5,8-2.1,13.1-2c1.3,1.2,2.5,2.6,3.7,3.9c0.9,0.4,1.1,1.5,2,2c0.4,0.9,1.5,1.1,1.7,2.2C50,70.7,44.3,75.9,39,81.6    c-1.6,1.2-2.6,2.8-4,4.2c-0.6,0.7-1.2,1.5-2,2c-0.2,1.2-1.6,1.2-1.7,2.5c-1.6,1.2-2.7,2.8-4,4.2c-1.6,1.2-3,2.6-4,4.4    c-0.7,0.7-2,0.8-2.5,1.7v0.5c-0.5,0.8-0.5,2.1-0.5,3.5c0.6,1.7,1.4,3.1,2.7,3.9c1,1.3,2.1,2.5,3.5,3.5c1,0.2,1.6,0.9,2.7,1h3    c1.3-0.7,2.7-1.2,3.5-2.5c0.8-0.2,1-0.9,1.5-1.5c0.4-0.5,1-1,1.2-1.7c1.9-2,3.6-4.3,5.4-6.4c0.7-0.3,1-1,1.5-1.5    c0.5-0.5,1.2-0.8,1.5-1.5c0.9-1.1,1.9-2.1,2.7-3.2c1-0.9,1.9-2.1,2.7-3.2c1.6-0.5,1.9-2.2,3.2-3c0.8-1.1,0.9-2.9,2.2-3.5    c0.7,0.5,1.4,0.9,2.2,1.2c0.2,1,1.2,1.1,1.7,1.7c1.5,0.8,2.3,2.3,4.4,2.5c3.9-1.5,5.6-5.3,8.1-8.1c0.8,0,1,0.8,1.5,1.2    c1.5,1.4,3,2.7,4.2,4.2c1.9,2.9,3.5,6,5.4,8.9c0.5,1.8,1.7,3.1,2.2,4.9c0.6,0.6,0.9,1.6,1.5,2.2c0.1,1.1,1.1,1.4,1.2,2.5    c1.1,1.2,2.4,2.4,3.5,3.7c2.4,1.3,4.2,3.2,7.2,3.9c1.6,0.1,2.8-0.2,3.7-0.7c1.2-0.2,1.5,0.8,2.5,0.2c2.2-1.4,3.6-3.5,4.2-6.4    c0.2-2.3-0.6-3.7-0.7-5.7c-0.9-0.9-1.4-2.2-2.2-3.2c-0.7-1.2-2.2-1.6-3-2.7c-1.6-2.1-3.8-3.6-6.2-4.9c-2.1-1.6-4.6-2.8-6.9-4.2    c-1.3-0.6-2.4-1.4-3.7-2c-1.4-0.5-2.3-1.5-3.9-1.7c-0.9-1.1-1.9-2.2-3.2-3c-0.7-1.4-2.4-1.7-3-3.2c6.6-9.3,13.2-18.7,19-28.9    c0.9-1.4,1.9-2.8,2.7-4c0.3-0.4,0.3-0.6,0.5-1c0-0.1,0.4-0.2,0.5-0.2c0.1-0.2,0.1-0.6,0.2-0.7c0.1-0.2,0.3-0.5,0.5-0.7    c0.2-0.4,0.3-0.7,0.5-1c0-0.1,0.4-0.1,0.5-0.2c0.1-0.2,0.1-0.5,0.2-0.7c0.4-0.8,0.8-1.7,1.2-2.5c2-3.9,4.2-7.9,6.2-11.9    c1.4-2.7,2.9-5.2,3.9-8.1c0.9-0.9,1.5-2.2,2.2-3.2c0-0.3,0-0.7,0.2-0.7C117.1,9.9,118.5,7.9,117.8,5.3z M47.2,42.4    C48.1,43.1,46.4,43.2,47.2,42.4L47.2,42.4z M29.6,54.9c-1.2,0.1-1.7-0.6-3-0.5c-1.9-1.1-3-2.9-4.7-4.2c-1.4-1.4-3.1-2.6-4.4-4.2    c-2.3-2.1-4.5-4.3-6.7-6.7c-0.7-0.7-1.7-1.1-2-2.2c0.1-1.4,0.9-2.2,0.7-4c2.2,0.2,3.9,0.9,6.2,1c1.1,0.3,1.6,1.2,2.2,2    c0.9,0.5,1.3,1.5,2.2,2c1.1,1.6,2.5,3,4,4.2c2.4,3,6.3,4.6,7.9,8.4C32,52.9,31,54.1,29.6,54.9z M39,44.3c-0.8,0.6-1.9,0.9-3,1.2    c-1.3-0.2-1.9-1.3-2.7-2c-0.9-0.6-1.6-1.3-2.5-2c-4.9-4.2-9.3-8.8-13.3-13.8v-1.7c0.3-0.6-0.7-1,0-1.2c-0.2-0.8,0.5-0.4,0.7-0.2    h1.2c0.6-0.3,1.4-0.4,2-0.7H22c5.6,5.8,11,11.7,16.5,17.5C38.5,42.5,39.2,43,39,44.3z M45.9,35c-1.8,0.3-3.7,0.5-5.2,1    c-0.8,0.2-0.3-0.8-1-0.7c-0.1-0.5-0.7-0.5-0.7-1c-0.7-0.5-1.3-1-1.7-1.7c-1.4-0.9-2-2.6-3.5-3.5c-2.2-2.5-4.6-4.6-6.9-6.9    c0.4-1.8-0.4-4.1-0.7-5.9c0.6-0.7,1-1.4,2-1.7c2.1,0.8,3.7,2.1,5.7,3c0.2,0.6,0.7,1,0.7,1.7c3.8,3.8,7.9,7.4,11.6,11.4    C46.1,31.9,46.5,33.9,45.9,35z M46.7,51.5c-0.2-0.8,0.8-0.3,0.7-1c0.3,0.1,0.2,0.6,0.2,1H46.7z M33.1,103.1    c-0.5-0.3-0.9-0.7-1.2-1.2c-1-0.6-1.4-1.9-2.5-2.5c-0.1-0.5,0.2-0.7,0.2-1c0.4-0.1,0.4,0.2,0.7,0.2c1.1,1.9,2.4,3.7,3.9,5.2    C34,104.5,33.3,103.4,33.1,103.1z M48.6,82.1c-2.2,3.4-5,6.2-7.4,9.4c-0.6,0.3-1.5,0.3-2,0.7c0.2,1.4-0.3,2.2-0.7,3    c-1.2,0-1.4-1.1-3-0.7c-0.3,0.1-0.4,0.4-0.7,0.5c-0.2,2.3,1.3,2.8,1.7,4.4c-1.5-1.1-2.3-2.8-3.5-4.2c1-1.7,2.6-2.8,3.7-4.4    c1.3-1.3,2.6-2.7,3.7-4.2c0.9-0.5,1.3-1.5,2.2-2c0.2-0.4,0.6-0.8,1-1c0.4-0.3,0.3-1,1-1c0.5-0.9,1.2-1.4,2-2c0.6-0.8,1.2-1.4,2-2    c0.1-0.3,0.4-0.4,0.5-0.7c1-0.1,1.3,0.7,2,1C50.8,80.5,49.7,81.2,48.6,82.1z M51.6,85.6c0,0.2,0,0.3-0.2,0.2c0,0.2,0,0.3-0.2,0.2    c0,0.3-0.4,0.2,0,0c0-0.2,0-0.3,0.2-0.2C51.4,85.7,51.4,85.5,51.6,85.6c0.1-0.6,0.2-1.3,1-1.2C52.6,85.1,52,85.2,51.6,85.6z     M104.7,103.3c-1.1,0-0.6-1.6-1-2.2C104.6,101.2,105.2,102.6,104.7,103.3z M101.5,99.1c0,0.5-1,0.1-1.5,0.2    c-0.2-0.6-0.7-1-0.7-1.7C100.1,98,100.8,98.6,101.5,99.1z M98.3,106.5c-0.4-0.2-0.8-0.4-0.7-1C98.2,105.5,98.3,105.9,98.3,106.5z     M110.6,15.7c-0.7,1.3-1.8,2.2-2.2,3.7c-1.1,0.9-1.5,2.4-2.2,3.7c-0.8,1.1-1.5,2.5-1.7,4.2c-0.7,0.8-1.4,1.7-2.2,2.5    c-0.7,3.1-2.6,5-3.7,7.7c-1.3,2.5-2.5,5.1-4.2,7.2c-2.9,4.5-6.7,8.3-9.4,13.1c-3,4.5-6.3,8.7-9.6,12.8c-3.1,4.3-6.5,8.5-9.4,13.1    c-1.2-0.4-1.8-1.3-3-1.7c-0.7-0.8-1.7-1.5-2.5-2.2c-1.4-1.7-3.2-2.9-4.4-4.7c0.3-1.3,1.4-1.7,2-2.7c1-0.5,1.2-1.8,2.2-2.2    c1.4-1.6,2.9-3.1,4.4-4.4c0.9-0.6,1.5-1.4,2.2-2.2c0.7-0.8,1.7-1.3,2.2-2.2c1.8-1.1,3-2.9,4.7-4.2c1.2-2.6,3.5-4.1,5.2-6.2    c1.8-1.9,3.5-3.9,5.2-5.9c1.5-2.2,3.2-4.4,4.9-6.4c0.8-1.1,1.8-2,2.5-3.2c1.2-0.6,1.6-2,3-2.5c-0.1-1,1.1-0.8,1-1.7    c0.6-0.3,0.8-1,1.2-1.5c0.7-1,1.6-1.9,2.5-2.7c1.5-2,3.1-3.8,4.4-5.9c3.3-2.7,6.1-5.9,9.1-8.9c0.4-0.1,0.5,0.2,0.5,0.5    C112.2,13.3,111.7,14.8,110.6,15.7z M65.9,70.3C66.3,70.1,65.9,70,65.9,70.3L65.9,70.3z M65.7,70.5c0.2,0,0.2-0.1,0.2-0.2    C65.7,70.2,65.7,70.3,65.7,70.5z M65.7,70.5C65.3,70.7,65.7,70.8,65.7,70.5L65.7,70.5z"
         id="path8" /></g></g></svg>