<svg
   xmlns:svg="http://www.w3.org/2000/svg"
   xmlns="http://www.w3.org/2000/svg"
   id="rice"
   viewBox="0 0 120 120"
   style="enable-background:new 0 0 120 120;"
   xml:space="preserve">
   <style
     type="text/css"
     id="style3">
	.st0{fill:#1FBA0A;}
</style><g
     id="_x30_605-rice-chopsticks"><g
       id="g6"><path
         class="st0"
         d="M12.4,7.7c0.8-0.1,0.8,0.6,1.5,0.5c0.5,0.2,1.7-0.3,1.8,0.3c0.9-0.2,1,0.4,1.8,0.3c0.5,0.3,1.5,0,1.8,0.5    c1.4,0,2.6,0.4,3.9,0.5c0.7,0,1.5-0.1,1.8,0.3c0.6,0.2,1.9-0.3,2.1,0.3c5.4,0.5,10.5,1.2,15.5,2.1c5.2,0.7,10.2,1.5,15.2,2.3    c2.7,0.2,4.9,0.9,7.7,1c0.1,0.6,1.3,0.1,1.8,0.3c0,0.7,1.8-0.2,1.8,0.5c1.7,0.1,2.3,0.3,3.9,0c0.2,0.6,1.6,0,1.8,0.5    c1.1-0.2,1.3,0.4,2.3,0.3c0.8,0,1.3,0.4,2.3,0.3c0.1,0.7,1.9-0.2,2.1,0.5c1.7-0.1,2.9,0.4,4.4,0.5c0.7,0.2,1.6,0.1,2.1,0.5    c0.8,0,1.6,0.1,2.1,0.5c2.9,0.4,5.4,1.3,8,2.1c2.7,0.4,5.6,1.9,8.5,1.3c0-1.2-1.5-0.9-2.1-1.5c-0.9-0.3-1.8-0.6-2.6-1    c-2.1-0.3-3.5-1.3-5.7-1.5c-0.8-0.4-1.7-0.7-2.6-1c-0.9-0.3-1.9-0.6-2.8-0.8c-1.5-1-3.7-1.3-5.7-1.8c-1.6-0.8-3.8-1-5.7-1.5    c-1.9-0.6-4.1-0.9-5.9-1.5c-4.2-0.7-7.9-1.9-12.1-2.6C53.6,7.7,45.5,6,37.2,4.6c-0.7-0.5-2.1-0.3-2.8-0.8c-1.2,0-2-0.5-3.1-0.5    c-2-0.5-4.2-0.8-6.2-1.3C20.8,1.4,16.9,0.4,12.4,0c-0.3,0.1-0.6,0.3-0.8,0.5c-0.6,1-1.4,1.8-1.3,3.6C10.7,5.6,11.6,6.7,12.4,7.7z     M15,3.9c5.7,1,11.3,2.1,16.8,3.4c-0.5,0.8-1.4-0.1-2.1,0c-1.1,0.2-1.3-0.4-2.3-0.3c-1.4-0.2-3.1-0.2-4.4-0.5h-2.3    c-0.8,0.2-0.8-0.4-1.5-0.3h-3.9c-0.4-0.6-0.9-1.2-0.8-2.3C14.7,3.7,14.9,3.6,15,3.9z M33.3,29.9c8.2,0.4,16.3,0.9,24.8,1    c8,0.6,17.2,0.2,25.3,0c3.7,0.6,8.7-0.1,12.4,0.5c4.2-0.5,8.9,1.1,11.9-0.5c-0.3-1.4-1.7-1.7-3.1-2.1c-1.5-0.2-2.8-0.7-4.6-0.5    c-0.3-0.6-1.6-0.1-2.3-0.3c-1,0.2-1.5-0.2-2.3-0.3c-1.7-0.1-3.9,0.3-5.2-0.3c-7.2,0.2-13.8-0.3-20.9-0.3c-9-1.1-18.5-1.8-27.1-3.4    c-8.4-1.7-17.9-2.4-27.9-2.6c-1.4,0.7-4,0.3-5.4,1c-0.7,1.4-1.3,4.9-0.3,6.5c3.8,0.5,8.3,0.3,12.1,0.8    C25,29.7,29.3,29.6,33.3,29.9z M10.6,24c0.6-0.1,0.5,0.4,0.5,0.8c0.2,0.6,0.7,1,0.8,1.8C10.3,26.8,11,24.9,10.6,24z M12.4,24h0.5    c1.2,0.1,1.1,1.4,1.5,2.3C12.9,26.4,12.6,25.3,12.4,24z M16,26.1c-0.3-0.6-0.9-0.8-0.8-1.8c4.7,0.5,9.7,0.6,14.2,1.3    c-0.2,0.6-1.4,0.1-2.1,0.3h-6.2C19.8,26.2,17.8,26,16,26.1z M107.9,52.1c-1.5-0.7-3-0.3-4.9-0.3c-0.6-0.4-0.5-1.5-1-2.1    c-0.7-0.4-1.1-1.1-1.8-1.5c-0.7-0.1-1.3-0.4-2.1-0.5c-1.8-0.1-3,0.5-4.1,1c-0.3-2.1-2-2.8-4.1-3.1c-0.5-2.4-1.8-3.9-3.4-5.2    c-0.4,0-1,0.1-1-0.3c-1.2,0-2.5-0.1-3.4,0.3c-1.3-0.1-1.7,0.9-3.1,0.8c-2.3-1.1-3.8-3.1-7-3.4c-1.1,0.3-2.2,0.5-3.1,1    c-1.1-1.1-2.2-1.7-3.4-1.3c-1.5,0.5-2.7,1.6-3.6,2.6c-0.6-0.8-1.6-1.1-2.8-1.3c-3.6-0.3-5.4,1.3-8,2.1c-1.2,0.6-1.5,1.9-2.6,2.3    c-1.2-1.1-4-0.7-6.2-0.8c-0.2,0.5-1.5,0.1-1.5,0.8c-0.9-0.1-0.6,0.9-1.5,0.8h-2.8c-1,0.5-2,0.9-3.1,1.3c-0.2,0.8-1.3,0.7-1.5,1.5    c-0.9,0.2-0.7,1.6-1.8,1.5c-1.4-0.2-2.2,0.2-3.4,0.3c-0.9,0.5-1.8,1-2.8,1.3c-0.1,0.3-0.3,0.5-0.8,0.5c-1,1.1-1.9,2.2-2.8,3.4    c-1.4,0.3-2.4,1-3.6,1.5c-0.6,0.7-1.1,1.4-1.8,2.1c-0.3,1.6-0.5,3.3-0.8,4.9v3.9c0.4,5.4,1.6,9.9,2.8,14.4    c1.1,1.8,1.7,4.2,2.6,6.2c0.9,2,2,3.9,2.8,5.9c0.9,0.5,0.9,1.9,1.8,2.3c0.3,1.1,1.3,1.7,1.8,2.6c1.2,1.7,2.8,3.1,4.1,4.6    c1.1,0.4,1.4,1.5,2.6,1.8c0.4,1,1.8,1.2,2.3,2.1c1.1,0.3,1.8,1.1,2.8,1.5c0.9,0.5,2.1,0.9,2.8,1.5c0.9,2.2,2.3,4,2.1,7.5    c1.6,1.9,4.4,2.4,7.5,2.8c5.2,0,10.7,0.7,15.7,0c8.7,0.2,17,0,20.6-4.9c0.1-1.4-0.7-1.4-0.3-2.6c7.2-3.4,13.1-9.3,17.3-16.3    c4.8-8,8.2-18.4,8-31C112.7,60.1,112,53.2,107.9,52.1z M49.6,113.3c-0.8-0.4-1.2-1.2-1.3-2.3h1.3V113.3z M53.4,113.5    c-0.6-0.3-0.5-1.2-0.5-2.1C53.9,111.3,53.2,112.9,53.4,113.5z M56.8,114.5c-0.4-0.7-0.4-2.7,0-3.4h0.8c0.5,0.8,0.2,2.4,0.5,3.4    H56.8z M61.7,114.3c-0.4-0.8-0.8-1.8-0.8-3.1c1.6,0.1,2.5-0.4,3.9-0.5c-0.1,1.3,0,2.6,0.3,3.6L61.7,114.3L61.7,114.3z M100.6,91.3    c-1.9,3.2-3.9,6.5-6.4,9c-2.3,2.8-5.5,4.8-8.3,7.2c-0.8,0.2-0.9-0.3-1.5-0.3c-0.9,0.1-0.9,1-1.5,1.3c-1.9,0.2-4,0.1-4.4,1.8    c0.1,1,0.7,1.6,1.8,1.5c0.3,0.8,2.3-0.2,2.6,0.5c0,1.8-2.2,1.4-3.6,1.8c-1.2,0.6-3.1,0.6-4.9,0.5c-0.4-0.4-0.2-1.5-0.3-2.3    c-0.2-0.6-0.9-0.8-1.3-1.3c-1.5,0.3-1.6,1.8-1.5,3.6h-3.1c0.1-1.7-0.5-2.8-0.3-4.6c-0.5-1.2-1.5-1.8-2.3-2.6    c-3.3-0.7-7.4-0.5-11.3-0.5c-3.3-0.3-6.7-0.6-10.1-0.8c0-0.5-0.9-0.2-1-0.5c-1.5-0.4-2-1.8-3.4-2.3c-0.3-0.7-1-0.9-1.5-1.3    c-0.4-0.3-0.9-1-1.5-1c-0.7-1.2-2.2-1.6-2.8-2.8c-0.9-0.9-2.1-1.5-2.6-2.8c1.6,0.4,4.7,0.6,5.4-0.8c-0.1-0.6-0.2-1.3-1-1.3    c-0.1-0.7-1.3-0.2-1.5-0.8h-3.9c-0.2-0.6-1.8,0.1-2.1-0.5c-0.1-0.7-0.8-0.8-0.8-1.5c3.5,0.4,8,1.2,9.8-1.3c-2.5-2.5-8-2-12.1-2.8    c-0.8-1.2-1.5-2.5-1.8-4.1c4.7,0.7,10.9,2,15.5,0.5c0.1-0.8-0.6-0.8-0.5-1.5c-0.1-0.6-1.1-0.3-1.3-0.8c-1.2-0.1-1.9-0.7-3.4-0.5    c-2.1-0.5-4.9-0.3-7-0.8h-2.3c-0.6-0.2-1.9,0.3-2.1-0.3c-0.9,0.4-0.2-0.9-0.8-0.8c0.2-0.7-0.4-0.7-0.3-1.3    c-0.4-0.5-0.5-1.4-0.5-2.3c3.1,1.1,6.9,1.4,10.6,1.8c1.4-0.4,3.8,0,4.1-1.5c0-1.6-2-1.3-2.8-2.1c-1.5-0.1-2.6-0.5-4.1-0.5    c-2.7-0.4-5.5-0.7-8.5-0.8c-0.8-1.7-0.7-4.3-1-6.4c0.2-0.2,0.5-0.3,0.5,0C30,67.9,41,70.4,53.7,71.2H72c5.9-0.4,11.8-0.9,17.8-1.3    c1.1-0.2,1.3,0.4,2.3,0.3c6.1,0,9.9-2.3,15.5-2.8C106.6,76.7,104.3,84.7,100.6,91.3z M108.1,61.1c-0.6,0-0.6,0.7-0.5,1.3    c-4.8,1.6-11,1.7-16.3,2.8c-8-0.3-14.5,1-22.2,1c-4.1,0.4-9.8,0.4-13.9,0c-14.1,0-24.4-3.8-36.9-5.4c-0.2-3,3-2.7,5.4-3.1    c1.4,0.1,2.8,1.7,3.9,0.5c0.3-1.8-1.3-1.8-1.8-2.8c0.2-1.2,1.2-1.6,1.8-2.3c0.9,0.1,1.4-0.1,2.1-0.3c1.5,0.1,2.6,0.5,4.1,0.5    c1,0.7,2.3,1,3.1,0c0.3-1.7-1.1-1.7-0.8-3.4c0.6-0.2,0.7-0.9,1.3-1c1.6-0.2,1.4,1.4,3.1,1c0.3,0.4,0.7,0.5,1,0.8    c0.2,0.2,0.2,1,0.8,0.8c1.5-0.5,0.5-2.5,0.3-3.6c1.9-1.3,5.2-0.7,7,0.3c1,0.8,1,2.5,2.3,2.8c1.1,0,1.4-0.8,1.8-1.5    c-0.2-1.4-1.1-2-1.3-3.4c1.8-1.4,4-2.3,7-2.6c0.6,0,0.8,0.4,1.5,0.3c0.4,0.4,0.9,0.7,1.5,0.8c0.9,0.4,0.9,1.7,2.3,1.5    c0.7,0.2,0.5-0.5,1-0.5c0.9-1.3-1.2-2.1-0.5-3.1c0.8,0.2,0.8-0.4,1.5-0.3c0.8,0.7,0.1,2.8,1.5,2.8c1.7,0,1.3-1.5,1.5-2.3    c2.3-0.9,5.4-0.5,6.7,1c0.7,1.6-0.9,4.1,1.3,4.4c1.7,0.1,1.5-1.7,2.1-2.8c1.3-0.7,3.5-1.5,5.2-1c1.2,1.6,0,5.7,2.1,6.4    c1.8,0,1.4-2.1,3.1-2.1c1.5,1.1-0.4,4,1.3,4.9c0.9,0.1,1.1-0.6,1.5-1c0.4-0.4,1-0.8,1.3-1.3c1.2-0.3,2-0.9,3.6-0.8    c0.7,0.4,1.5,0.8,1.8,1.5c0.3,2.3-1.7,4.1,0.3,5.2c1.7,0.2,1.7-1.4,2.8-1.8c1.3-0.3,3.2-0.4,4.1,0.3    C108,56.9,108.2,58.9,108.1,61.1z M66.8,53.9c0,0.8,0.7,0.9,1.3,1c0-0.5,0.9-0.2,0.8-0.8v-1.8c-0.9-1-1.5-2.3-3.4-2.3    c-1.5,0.2-2.4,1.1-3.4,1.8c-0.5,0.9-0.8,2.3,0.3,2.8c1.9,0.1,1.6-2,3.4-2.1C66.2,53,66.7,53.3,66.8,53.9z M84.9,55.2    c-0.3-1.2-1.4-1.6-2.1-2.3h-3.1c-1.2,0.8-3.5,1.7-2.8,3.6c1.8,0.9,2.4-1.5,4.4-1.3c1.7,0.3,1.2,2.7,3.1,2.8    C85.4,57.9,85.9,55.8,84.9,55.2z M56.5,54.4c-1.8-0.9-3.5-1.2-5.4-0.5c-1.1,1.2-2.3,2.3-2.3,4.6c0.5,0.4,0.6,1.3,1.8,1    c1-0.1,0.6-1.5,1-2.1c0.4-0.6,0.9-1.2,1.8-1.3c1.1-0.1,1.1,1,2.1,1c0.2,1,0.9,1.4,1.8,1.5c0.8-0.5,1.1-1.2,0.8-2.3    C57.5,55.9,57.1,55.1,56.5,54.4z M34.1,58.3c0.3,0.3,0.8,0.4,1,0.8c0.8,0.1,1.1-0.5,2.1-0.3c1.3,0.1,2.8,1.3,3.6,0.3    C40.8,56.3,34.7,55.3,34.1,58.3z M70.7,58c-3.2-0.4-6.3,0.5-5.7,3.1c1.2,0.6,1.7-0.9,3.1-0.8c1.1-0.2,1.7,0.2,2.6,0.3    c1.3,0.6,1.8,2,3.6,1.8C75.3,59.7,72.3,59,70.7,58z M91.6,60.1H89c-0.8,0.5-1.3,1.3-2.1,1.8c-0.2,1-0.5,2.5,0.8,2.6    c1.5-0.2,1.1-2.2,2.8-2.1c1.2,0.1,2.1,1.6,3.4,0.8C94.9,61.4,92.6,60.8,91.6,60.1z M83.1,77.6c-0.1,0.4-0.6,0.3-0.8,0.5    c-1,2.1-3.2,4.3-2.3,7.5c0.6,0,0.8,0.4,1.3,0.5c1.2-0.7,2-1.6,2.3-3.1c0.5-1.4,1.4-2.4,1.3-4.4C84.4,78.2,84.1,77.5,83.1,77.6z     M77.9,81.5h-1c-0.1,0.4-0.4,0.4-0.5,0.8c-0.9,1.1-1.9,2.2-2.6,3.6c-0.6,1.2-1.6,3.3-0.5,4.6c0.5-0.1,0.6,0.3,1,0.3    c2.1-0.2,1.8-2.7,2.8-3.9C77.2,85,78.7,83.4,77.9,81.5z M76.4,96.5c1.4,0,2.1-0.7,2.1-2.1C77.5,92.5,75.3,94.9,76.4,96.5z"
         id="path8" /></g></g></svg>